<?xml version="1.0" standalone="no"?><!DOCTYPE svg PUBLIC "-//W3C//DTD SVG 1.1//EN" "http://www.w3.org/Graphics/SVG/1.1/DTD/svg11.dtd"><svg class="icon" width="200px" height="200.00px" viewBox="0 0 1024 1024" version="1.1" xmlns="http://www.w3.org/2000/svg"><path fill="#333333" d="M512 1024c282.763636 0 512-229.236364 512-512C1024 229.236364 794.763636 0 512 0c-282.763636 0-512 229.236364-512 512C0 794.763636 229.236364 1024 512 1024zM512 46.54545501C769.070545 46.545455 977.454545 254.929455 977.45454499 512c0 257.070545-208.384 465.45454499-465.45454499 465.45454499s-465.45454499-208.384-465.45454499-465.45454499C46.545455 254.929455 254.929455 46.545455 512 46.54545501z"  /><path fill="#333333" d="M594.292364 594.292364L758.784 265.122909l-329.076364 164.584727-164.584727 329.076364L594.292364 594.292364zM465.268364 467.083636L681.472 340.759273l-124.369455 216.715636L465.268364 467.083636z"  /></svg>