<?xml version="1.0" standalone="no"?><!DOCTYPE svg PUBLIC "-//W3C//DTD SVG 1.1//EN" "http://www.w3.org/Graphics/SVG/1.1/DTD/svg11.dtd"><svg class="icon" width="200px" height="200.00px" viewBox="0 0 1024 1024" version="1.1" xmlns="http://www.w3.org/2000/svg"><path fill="#1989fa" d="M523.67678002 846.47978144c-136.48128786 7.39879891-256.55201969-74.76219951-308.89721426-186.77438244-57.5253935-123.08228182-46.67382419-244.60571774 35.45595487-353.05898435 78.2961403-103.39586053 187.12819262-144.47115617 316.01504481-129.07832568 63.97931076 7.64230197 120.38291756 33.9095967 169.55630809 75.64464437 26.67937841 22.65842944 26.08414574 32.78364672-3.49439693 49.75821804-25.70119677 14.75597134-51.53143027 29.27884468-77.09942909 44.26791399-70.68921891 41.41245686-141.81549702 82.1068862-211.68054653 124.88255222-37.4144008 22.89360801-44.89644662 59.41723939-23.98417737 97.31032387 22.62304679 40.9816395 66.48095772 50.52203131 112.94873799 23.6574233 138.07759499-79.85082497 275.69315734-160.49459997 414.20573091-239.59409944 22.91858351-13.08473765 25.43687942-26.39841206 15.25338664-48.57607519-35.83057935-78.02141786-88.5982647-142.10895312-159.30829588-190.05024975-156.24471427-105.93496867-322.95597029-122.90745938-493.67985283-42.43434358-170.31387744 80.28164027-262.83111252 221.25839954-278.21145327 407.06084421-12.7434152 154.03236017 45.86422316 284.44684096 157.04391021 391.77207697 155.01262245 149.63262349 414.07461356 173.17765906 592.13069299 52.8842364 46.36371906-31.31221307 46.36371906-31.31221307 17.61767232-79.13904133-31.08119571-51.69793027-61.92304753-61.30700265-115.87912166-35.44138647C630.61490787 834.03814479 577.69112762 849.93671509 523.67678002 846.47978144z"  /><path fill="#1989fa" d="M992.35056871 627.58982883c-2.56824692-37.00231505-22.63345392-67.05954139-39.94934562-98.04916161-5.65264077-10.12105605-14.72267133-6.22706118-22.81660291-1.60879692-31.73678449 18.16919988-63.37575163 36.49449263-95.3539606 54.22247007-13.5925601 7.53616013-15.99638765 16.66238357-8.13763667 29.90945794 18.21290703 30.69824673 36.29261199 61.47766388 53.75419148 92.59840143 7.58818976 13.51971622 16.68943969 16.61243458 29.78458447 8.33327343 19.12240599-12.08574382 38.86294157-23.29528659 57.32351494-36.31134367C983.3762749 665.09163979 993.02488914 648.8038787 992.35056871 627.58982883z"  /></svg>