<?xml version="1.0" standalone="no"?><!DOCTYPE svg PUBLIC "-//W3C//DTD SVG 1.1//EN" "http://www.w3.org/Graphics/SVG/1.1/DTD/svg11.dtd"><svg class="icon" width="200px" height="200.00px" viewBox="0 0 1024 1024" version="1.1" xmlns="http://www.w3.org/2000/svg"><path fill="#333333" d="M511.65886691 580.56782393c59.58464285 0 117.34990734 11.71224803 171.70383645 34.68190037 52.53455189 22.17367438 99.72467826 54.01279602 140.20584789 94.60767744 40.59488029 40.59488029 72.32029127 87.78500779 94.60767744 140.20584789 14.10018304 33.3173669 23.87934208 67.99926727 29.45118777 103.47714674H75.69031737c5.45813504-35.59159011 15.35100473-70.15977984 29.45118777-103.47714674 22.17367438-52.53455189 54.01279602-99.72467826 94.6076763-140.20584789 40.59488029-40.59488029 87.78500779-72.32029127 140.20584789-94.60767744 54.35393024-22.96965234 112.1191936-34.68190037 171.70383758-34.68190037m0-68.22669084c-281.32138553 0-509.42595299 228.10456747-509.42595299 509.42595299h1018.85190485c0-281.32138553-228.10456747-509.42595299-509.42595186-509.42595299z"  /><path fill="#333333" d="M511.65886691 71.14187093c57.7652645 0 112.00548295 22.51480747 152.82778568 63.22339954 40.82230272 40.82230272 63.22339954 95.06252117 63.22339954 152.82778567s-22.51480747 112.00548295-63.22339954 152.82778567c-40.82230272 40.82230272-95.06252117 63.22339954-152.82778568 63.22339954s-112.00548295-22.51480747-152.82778566-63.22339954c-40.82230272-40.82230272-63.22339954-95.06252117-63.22339954-152.82778567s22.51480747-112.00548295 63.22339954-152.82778567c40.82230272-40.70859207 95.06252117-63.22339954 152.82778566-63.22339954m0-68.2266897c-157.03509789 0-284.27787491 127.24277703-284.27787605 284.27787491s127.24277703 284.27787491 284.27787605 284.27787492 284.27787491-127.24277703 284.27787492-284.27787492-127.24277703-284.27787491-284.27787492-284.27787491z"  /></svg>